<?xml version="1.0" encoding="UTF-8" standalone="no"?>
<!-- Created with Inkscape (http://www.inkscape.org/) -->

<svg
   version="1.1"
   id="svg2"
   xml:space="preserve"
   width="793.70074"
   height="1122.5197"
   viewBox="0 0 793.70074 1122.5197"
   sodipodi:docname="basepairing.svg"
   inkscape:version="1.1.2 (0a00cf5339, 2022-02-04)"
   xmlns:inkscape="http://www.inkscape.org/namespaces/inkscape"
   xmlns:sodipodi="http://sodipodi.sourceforge.net/DTD/sodipodi-0.dtd"
   xmlns="http://www.w3.org/2000/svg"
   xmlns:svg="http://www.w3.org/2000/svg"><defs
     id="defs6" /><sodipodi:namedview
     id="namedview4"
     pagecolor="#ffffff"
     bordercolor="#666666"
     borderopacity="1.0"
     inkscape:pageshadow="2"
     inkscape:pageopacity="0.0"
     inkscape:pagecheckerboard="0"
     showgrid="false"
     inkscape:zoom="1.0998546"
     inkscape:cx="376.86799"
     inkscape:cy="351.41008"
     inkscape:window-width="2490"
     inkscape:window-height="1376"
     inkscape:window-x="70"
     inkscape:window-y="27"
     inkscape:window-maximized="1"
     inkscape:current-layer="g8" /><g
     id="g8"
     inkscape:groupmode="layer"
     inkscape:label="basepairing"
     transform="matrix(1.3333333,0,0,1.3333333,0,3.3396326e-5)"><path
       d="M 4.582,49.598 H 780.801 V 607.539 H 4.582 Z"
       style="fill:#ffffff;fill-opacity:1;fill-rule:evenodd;stroke:none"
       id="path12" /><text
       style="font-variant:normal;font-weight:normal;font-size:29.6906px;font-family:FreeMono;-inkscape-font-specification:FreeMonoBold;writing-mode:lr-tb;fill:#000000;fill-opacity:1;fill-rule:nonzero;stroke:none"
       id="text20"
       x="259.32837"
       y="168.51559"><tspan
         x="259.32837 277.14276 294.95715 312.77155 330.58594 348.4003 366.21469 384.02908 401.84348 419.65787 437.47226 455.28665 473.10101 490.91541 508.7298 526.54419 544.35858 562.17297 579.98737"
         y="168.51559"
         sodipodi:role="line"
         id="tspan14">+11 UGCGUCUGUUU +21</tspan><tspan
         x="188.07082 330.58594 348.4003 366.21469 384.02908 401.84348 419.65787 437.47226 455.28665 473.10101 490.91541 508.7298"
         y="206.82347"
         sodipodi:role="line"
         id="tspan16"> ||||||||||·</tspan><tspan
         x="188.07082 259.32837 277.14276 294.95715 312.77155 330.58594 348.4003 366.21469 384.02908 401.84348 419.65787 437.47226 455.28665 473.10101 490.91541 508.7298 526.54419 544.35858 562.17297 579.98737"
         y="245.13135"
         sodipodi:role="line"
         id="tspan18"> +39 ACGCAGACAAG +29</tspan></text><text
       style="font-style:italic;font-variant:normal;font-size:29.6906px;font-family:Arial;-inkscape-font-specification:Arial-ItalicMT;writing-mode:lr-tb;fill:#000000;fill-opacity:1;fill-rule:nonzero;stroke:none"
       id="text24"
       x="77.866951"
       y="168.37791"><tspan
         x="77.866951 92.712273 107.55759 124.0656 140.57359 157.0816"
         y="168.37791"
         sodipodi:role="line"
         id="tspan22">vc1043</tspan></text><text
       style="font-variant:normal;font-weight:normal;font-size:29.6906px;font-family:Arial;-inkscape-font-specification:ArialMT;writing-mode:lr-tb;fill:#000000;fill-opacity:1;fill-rule:nonzero;stroke:none"
       id="text28"
       x="113.22866"
       y="244.54773"><tspan
         x="113.22866 131.33995 147.84795 157.73494"
         y="244.54773"
         sodipodi:role="line"
         id="tspan26">FarS</tspan></text><text
       style="font-style:italic;font-variant:normal;font-size:29.6906px;font-family:Arial;-inkscape-font-specification:Arial-ItalicMT;writing-mode:lr-tb;fill:#000000;fill-opacity:1;fill-rule:nonzero;stroke:none"
       id="text32"
       x="57.217464"
       y="402.80118"><tspan
         x="57.217464 72.062782 86.908112 103.41611 119.92411 136.43211 152.94011"
         y="402.80118"
         sodipodi:role="line"
         id="tspan30">vca0848</tspan></text><text
       style="font-variant:normal;font-weight:normal;font-size:29.6906px;font-family:Arial;-inkscape-font-specification:ArialMT;writing-mode:lr-tb;fill:#000000;fill-opacity:1;fill-rule:nonzero;stroke:none"
       id="text36"
       x="110.03736"
       y="478.97098"><tspan
         x="110.03736 128.14865 144.65665 154.54364"
         y="478.97098"
         sodipodi:role="line"
         id="tspan34">FarS</tspan></text><text
       style="font-variant:normal;font-weight:normal;font-size:29.6906px;font-family:FreeMono;-inkscape-font-specification:FreeMonoBold;writing-mode:lr-tb;fill:#000000;fill-opacity:1;fill-rule:nonzero;stroke:none"
       id="text40"
       x="420.16412"
       y="304.18655"><tspan
         x="420.16412"
         y="304.18655"
         id="tspan38">C</tspan></text><g
       id="g42"><path
         d="m 429.113,254.863 0.004,21.364"
         style="fill:none;stroke:#000000;stroke-width:0.958093;stroke-linecap:butt;stroke-linejoin:miter;stroke-miterlimit:4;stroke-dasharray:none;stroke-opacity:1"
         id="path44" /></g><g
       id="g46"
       transform="rotate(-90.015204)"><path
         d="m -266.762,429.042 3.833,-3.831 -13.411,3.833 13.413,3.832 z"
         style="fill:#000000;fill-opacity:1;fill-rule:evenodd;stroke:#000000;stroke-width:1.02197;stroke-linecap:butt;stroke-linejoin:miter;stroke-miterlimit:4;stroke-dasharray:none;stroke-opacity:1"
         id="path48" /></g><text
       style="font-variant:normal;font-weight:normal;font-size:29.6906px;font-family:FreeMono;-inkscape-font-specification:FreeMonoBold;writing-mode:lr-tb;fill:#000000;fill-opacity:1;fill-rule:nonzero;stroke:none"
       id="text52"
       x="452.49216"
       y="537.8161"><tspan
         x="452.49216"
         y="537.8161"
         id="tspan50">C</tspan></text><g
       id="g54"><path
         d="m 461.441,488.492 0.004,21.367"
         style="fill:none;stroke:#000000;stroke-width:0.958093;stroke-linecap:butt;stroke-linejoin:miter;stroke-miterlimit:4;stroke-dasharray:none;stroke-opacity:1"
         id="path56" /></g><g
       id="g58"
       transform="rotate(-90.015204)"><path
         d="m -500.4,461.309 3.833,-3.831 -13.415,3.832 13.413,3.832 z"
         style="fill:#000000;fill-opacity:1;fill-rule:evenodd;stroke:#000000;stroke-width:1.02197;stroke-linecap:butt;stroke-linejoin:miter;stroke-miterlimit:4;stroke-dasharray:none;stroke-opacity:1"
         id="path60" /></g><text
       style="font-variant:normal;font-weight:normal;font-size:29.6906px;font-family:FreeMono;-inkscape-font-specification:FreeMonoBold;writing-mode:lr-tb;fill:#000000;fill-opacity:1;fill-rule:nonzero;stroke:none"
       id="text68"
       x="238.08121"
       y="402.0853"><tspan
         x="238.08121 255.8956 273.70999 291.52438 309.33878 327.15314 344.96753 362.78192 380.59631 398.41071 416.2251 434.03949 451.85385 469.66824 487.48264 505.29703 523.11145 540.92578 558.74017 576.55457 594.36896"
         y="402.0853"
         sodipodi:role="line"
         id="tspan62">+100 CCGCUCUCCACGGCGA</tspan><tspan
         x="184.63805 327.15314 344.96753 362.78192 380.59631 398.41071 416.2251 434.03949 451.85385 469.66824 487.48264 505.29703 523.11145 540.92578 558.74017 576.55457"
         y="440.39316"
         sodipodi:role="line"
         id="tspan64"> |||||||||| || |</tspan><tspan
         x="184.63805 255.8956 273.70999 291.52438 309.33878 327.15314 344.96753 362.78192 380.59631 398.41071 416.2251 434.03949 451.85385 469.66824 487.48264 505.29703 523.11145 540.92578 558.74017 576.55457 594.36896"
         y="478.70105"
         sodipodi:role="line"
         id="tspan66"> +61 GGCGAGAGGUACC-CU</tspan></text></g></svg>
