<?xml version="1.0" encoding="UTF-8" standalone="no"?>
<svg
   version="1.1"
   width="1467.6"
   height="1068"
   id="svg172"
   sodipodi:docname="hfq_lcd_igr_vcr069_vc1803.svg"
   inkscape:version="1.1.2 (0a00cf5339, 2022-02-04)"
   xmlns:inkscape="http://www.inkscape.org/namespaces/inkscape"
   xmlns:sodipodi="http://sodipodi.sourceforge.net/DTD/sodipodi-0.dtd"
   xmlns="http://www.w3.org/2000/svg"
   xmlns:svg="http://www.w3.org/2000/svg">
  <sodipodi:namedview
     id="namedview174"
     pagecolor="#ffffff"
     bordercolor="#666666"
     borderopacity="1.0"
     inkscape:pageshadow="2"
     inkscape:pageopacity="0.0"
     inkscape:pagecheckerboard="0"
     showgrid="false"
     inkscape:zoom="0.81741573"
     inkscape:cx="733.40893"
     inkscape:cy="534"
     inkscape:window-width="2490"
     inkscape:window-height="1376"
     inkscape:window-x="70"
     inkscape:window-y="27"
     inkscape:window-maximized="1"
     inkscape:current-layer="svg172" />
  <defs
     id="defs2" />
  <g
     transform="translate(493.55886956755427,297.0654817664049) scale(1.08,1.08)"
     id="g170"
     inkscape:export-filename="/home/abc/Workspace/ChimericFragmentsPaper/figures/supplementary_figures/hfq_lcd_igr_vcr069_vc1803.png"
     inkscape:export-xdpi="159.95599"
     inkscape:export-ydpi="159.95599">
    <path
       fill="none"
       stroke="rgb(163,46,40)"
       paint-order="fill stroke markers"
       d=" M 260.2512363044494 256.49543492531666 L 311.8609850776892 301.6768748317673"
       stroke-opacity="0.4"
       stroke-linejoin="round"
       stroke-miterlimit="10"
       stroke-width="2.3"
       id="path4" />
    <path
       fill="rgb(255,255,255)"
       stroke="none"
       paint-order="stroke fill markers"
       d=" M 305.9107815334244 302.24921894313655 L 315.3220763675047 304.7068660996694 L 311.6414171922828 295.70324193848546 Z"
       fill-opacity="1"
       id="path6" />
    <path
       fill="rgb(153,153,153)"
       stroke="none"
       paint-order="stroke fill markers"
       d=" M 305.9107815334244 302.24921894313655 L 315.3220763675047 304.7068660996694 L 311.6414171922828 295.70324193848546 Z"
       fill-opacity="0.4"
       id="path8" />
    <path
       fill="none"
       stroke="rgb(170,60,52)"
       paint-order="fill stroke markers"
       d=" M 77.62101296262844 251.8814630239908 L 169.04310949520294 234.02652074785505"
       stroke-opacity="0.4"
       stroke-linejoin="round"
       stroke-miterlimit="10"
       stroke-width="2.3"
       id="path10" />
    <path
       fill="rgb(255,255,255)"
       stroke="none"
       paint-order="stroke fill markers"
       d=" M 165.85294613665656 239.08175147906684 L 173.5578131368102 233.1447889130788 L 164.1853228839276 230.5430728525487 Z"
       fill-opacity="1"
       id="path12" />
    <path
       fill="rgb(153,153,153)"
       stroke="none"
       paint-order="stroke fill markers"
       d=" M 165.85294613665656 239.08175147906684 L 173.5578131368102 233.1447889130788 L 164.1853228839276 230.5430728525487 Z"
       fill-opacity="0.4"
       id="path14" />
    <path
       fill="none"
       stroke="rgb(169,58,50)"
       paint-order="fill stroke markers"
       d=" M 367.0844703092913 258.3140481198599 Q 322.9968864034675 232.21817157819297 276.82941949432546 228.2358416521206"
       stroke-opacity="0.4"
       stroke-linejoin="round"
       stroke-miterlimit="10"
       stroke-width="2.2"
       id="path16" />
    <path
       fill="rgb(255,255,255)"
       stroke="none"
       paint-order="stroke fill markers"
       d=" M 281.54442975619264 224.4188753214922 L 272.4456978210418 227.85770901509622 L 280.6560039370155 233.0733943470545 Z"
       fill-opacity="1"
       id="path18" />
    <path
       fill="rgb(153,153,153)"
       stroke="none"
       paint-order="stroke fill markers"
       d=" M 281.54442975619264 224.4188753214922 L 272.4456978210418 227.85770901509622 L 280.6560039370155 233.0733943470545 Z"
       fill-opacity="0.4"
       id="path20" />
    <path
       fill="none"
       stroke="rgb(202,123,106)"
       paint-order="fill stroke markers"
       d=" M 278.96298870163145 102.83299134805144 Q 248.29937183897476 134.0568593388562 237.6274381223612 171.26870950010652"
       stroke-opacity="0.4"
       stroke-linejoin="round"
       stroke-miterlimit="10"
       stroke-width="2.2"
       id="path22" />
    <path
       fill="rgb(255,255,255)"
       stroke="none"
       paint-order="stroke fill markers"
       d=" M 234.7960080923355 165.9069093335942 L 236.41446494239818 175.49821255184798 L 243.1164334069636 168.44866514084558 Z"
       fill-opacity="1"
       id="path24" />
    <path
       fill="rgb(153,153,153)"
       stroke="none"
       paint-order="stroke fill markers"
       d=" M 234.7960080923355 165.9069093335942 L 236.41446494239818 175.49821255184798 L 243.1164334069636 168.44866514084558 Z"
       fill-opacity="0.4"
       id="path26" />
    <path
       fill="none"
       stroke="rgb(250,217,187)"
       paint-order="fill stroke markers"
       d=" M 198.78399084987126 267.5077092816066 L 153.8298771432079 350.3534584562712"
       stroke-opacity="0.4"
       stroke-linejoin="round"
       stroke-miterlimit="10"
       stroke-width="2.1"
       id="path28" />
    <path
       fill="rgb(255,255,255)"
       stroke="none"
       paint-order="stroke fill markers"
       d=" M 152.15269336087403 344.3235700194694 L 151.82675535485492 354.045003268545 L 159.79946475772684 348.4728937239149 Z"
       fill-opacity="1"
       id="path30" />
    <path
       fill="rgb(153,153,153)"
       stroke="none"
       paint-order="stroke fill markers"
       d=" M 152.15269336087403 344.3235700194694 L 151.82675535485492 354.045003268545 L 159.79946475772684 348.4728937239149 Z"
       fill-opacity="0.4"
       id="path32" />
    <path
       fill="none"
       stroke="rgb(178,76,65)"
       paint-order="fill stroke markers"
       d=" M 184.8878405024318 190.76626359770876 L 116.69843206245476 131.51697182434037"
       stroke-opacity="0.4"
       stroke-linejoin="round"
       stroke-miterlimit="10"
       stroke-width="2.1"
       id="path34" />
    <path
       fill="rgb(255,255,255)"
       stroke="none"
       paint-order="stroke fill markers"
       d=" M 122.94840758588953 131.18484841886217 L 113.52803364491685 128.76223519916675 L 117.24216743374411 137.75210228376213 Z"
       fill-opacity="1"
       id="path36" />
    <path
       fill="rgb(153,153,153)"
       stroke="none"
       paint-order="stroke fill markers"
       d=" M 122.94840758588953 131.18484841886217 L 113.52803364491685 128.76223519916675 L 117.24216743374411 137.75210228376213 Z"
       fill-opacity="0.4"
       id="path38" />
    <path
       fill="none"
       stroke="rgb(247,213,183)"
       paint-order="fill stroke markers"
       d=" M 336.7065209881837 131.99940607920473 Q 289.9285794547879 150.12410386026542 259.2493288122805 183.601837438908"
       stroke-opacity="0.4"
       stroke-linejoin="round"
       stroke-miterlimit="10"
       stroke-width="2.1"
       id="path40" />
    <path
       fill="rgb(255,255,255)"
       stroke="none"
       paint-order="stroke fill markers"
       d=" M 259.23886875736497 177.39131183172387 L 256.4117212472534 186.698284323145 L 265.55358774645725 183.37581883638157 Z"
       fill-opacity="1"
       id="path42" />
    <path
       fill="rgb(153,153,153)"
       stroke="none"
       paint-order="stroke fill markers"
       d=" M 259.23886875736497 177.39131183172387 L 256.4117212472534 186.698284323145 L 265.55358774645725 183.37581883638157 Z"
       fill-opacity="0.4"
       id="path44" />
    <path
       fill="none"
       stroke="rgb(247,213,183)"
       paint-order="fill stroke markers"
       d=" M 255.30786716066393 185.71631089903573 Q 283.4833871086226 153.08539237493625 291.8464849668244 114.8259141374634"
       stroke-opacity="0.4"
       stroke-linejoin="round"
       stroke-miterlimit="10"
       stroke-width="2.3"
       id="path46" />
    <path
       fill="rgb(255,255,255)"
       stroke="none"
       paint-order="stroke fill markers"
       d=" M 295.06423925860383 119.79855932806575 L 292.82879975950664 110.33202298968537 L 286.5968343882607 117.80029639199135 Z"
       fill-opacity="1"
       id="path48" />
    <path
       fill="rgb(153,153,153)"
       stroke="none"
       paint-order="stroke fill markers"
       d=" M 295.06423925860383 119.79855932806575 L 292.82879975950664 110.33202298968537 L 286.5968343882607 117.80029639199135 Z"
       fill-opacity="0.4"
       id="path50" />
    <path
       fill="none"
       stroke="rgb(222,164,141)"
       paint-order="fill stroke markers"
       d=" M 268.18939063692005 202.95968472539587 Q 313.39181111330623 182.51973257987365 342.1567223717871 147.4383742848531"
       stroke-opacity="0.4"
       stroke-linejoin="round"
       stroke-miterlimit="10"
       stroke-width="2.4"
       id="path52" />
    <path
       fill="rgb(255,255,255)"
       stroke="none"
       paint-order="stroke fill markers"
       d=" M 342.89751187032925 153.17700128705283 L 345.2001903553015 143.72659538069908 L 336.25825853923516 147.5546961365335 Z"
       fill-opacity="1"
       id="path54" />
    <path
       fill="rgb(153,153,153)"
       stroke="none"
       paint-order="stroke fill markers"
       d=" M 342.89751187032925 153.17700128705283 L 345.2001903553015 143.72659538069908 L 336.25825853923516 147.5546961365335 Z"
       fill-opacity="0.4"
       id="path56" />
    <path
       fill="none"
       stroke="rgb(240,199,171)"
       paint-order="fill stroke markers"
       d=" M 202.9450042406831 177.59908693771303 L 186.56903953233132 139.3648611111636"
       stroke-opacity="0.4"
       stroke-linejoin="round"
       stroke-miterlimit="10"
       stroke-width="12"
       id="path58" />
    <path
       fill="rgb(255,255,255)"
       stroke="none"
       paint-order="stroke fill markers"
       d=" M 201.8382786859367 138.22830085532354 L 177.11991574076097 117.30326417051629 L 175.2109041600206 149.63297653754123 Z"
       fill-opacity="1"
       id="path60" />
    <path
       fill="rgb(153,153,153)"
       stroke="none"
       paint-order="stroke fill markers"
       d=" M 201.8382786859367 138.22830085532354 L 177.11991574076097 117.30326417051629 L 175.2109041600206 149.63297653754123 Z"
       fill-opacity="0.4"
       id="path62" />
    <path
       fill="none"
       stroke="rgb(225,169,145)"
       paint-order="fill stroke markers"
       d=" M 220.5865246676709 273.518944094275 L 217.54745803875116 347.79234943509715"
       stroke-opacity="0.4"
       stroke-linejoin="round"
       stroke-miterlimit="10"
       stroke-width="3.7"
       id="path64" />
    <path
       fill="rgb(255,255,255)"
       stroke="none"
       paint-order="stroke fill markers"
       d=" M 212.63653818556145 344.94254790327926 L 217.24492322621117 355.18616257090207 L 222.67478393591955 345.3532857378086 Z"
       fill-opacity="1"
       id="path66" />
    <path
       fill="rgb(153,153,153)"
       stroke="none"
       paint-order="stroke fill markers"
       d=" M 212.63653818556145 344.94254790327926 L 217.24492322621117 355.18616257090207 L 222.67478393591955 345.3532857378086 Z"
       fill-opacity="0.4"
       id="path68" />
    <path
       fill="none"
       stroke="rgb(173,66,57)"
       paint-order="fill stroke markers"
       d=" M 266.8465286136852 246.90509613628635 Q 311.7158031046376 270.594429337449 356.7162966335115 272.2765640096715"
       stroke-opacity="0.4"
       stroke-linejoin="round"
       stroke-miterlimit="10"
       stroke-width="3.1"
       id="path70" />
    <path
       fill="rgb(255,255,255)"
       stroke="none"
       paint-order="stroke fill markers"
       d=" M 353.99832861556354 276.40168140220624 L 362.9119695644202 272.50816049756656 L 354.44896827139445 267.71336028126507 Z"
       fill-opacity="1"
       id="path72" />
    <path
       fill="rgb(153,153,153)"
       stroke="none"
       paint-order="stroke fill markers"
       d=" M 353.99832861556354 276.40168140220624 L 362.9119695644202 272.50816049756656 L 354.44896827139445 267.71336028126507 Z"
       fill-opacity="0.4"
       id="path74" />
    <path
       fill="none"
       stroke="rgb(243,204,175)"
       paint-order="fill stroke markers"
       d=" M 224.9865188513588 173.6162778904417 L 229.30865098161368 81.98586515035782"
       stroke-opacity="0.4"
       stroke-linejoin="round"
       stroke-miterlimit="10"
       stroke-width="2.1"
       id="path76" />
    <path
       fill="rgb(255,255,255)"
       stroke="none"
       paint-order="stroke fill markers"
       d=" M 233.44179421017725 86.68582547489028 L 229.50654154538563 77.79052972577375 L 224.75145654496737 86.27590930707696 Z"
       fill-opacity="1"
       id="path78" />
    <path
       fill="rgb(153,153,153)"
       stroke="none"
       paint-order="stroke fill markers"
       d=" M 233.44179421017725 86.68582547489028 L 229.50654154538563 77.79052972577375 L 224.75145654496737 86.27590930707696 Z"
       fill-opacity="0.4"
       id="path80" />
    <path
       fill="none"
       stroke="rgb(191,102,88)"
       paint-order="fill stroke markers"
       d=" M 242.96029607106811 269.24123170576786 L 281.08236460277226 354.9012093163702"
       stroke-opacity="0.4"
       stroke-linejoin="round"
       stroke-miterlimit="10"
       stroke-width="2.6"
       id="path82" />
    <path
       fill="rgb(255,255,255)"
       stroke="none"
       paint-order="stroke fill markers"
       d=" M 275.68508924492085 353.4722521051388 L 283.196644798292 359.65197970177434 L 283.63349354357774 349.9348987010961 Z"
       fill-opacity="1"
       id="path84" />
    <path
       fill="rgb(153,153,153)"
       stroke="none"
       paint-order="stroke fill markers"
       d=" M 275.68508924492085 353.4722521051388 L 283.196644798292 359.65197970177434 L 283.63349354357774 349.9348987010961 Z"
       fill-opacity="0.4"
       id="path86" />
    <path
       fill="none"
       stroke="rgb(202,123,106)"
       paint-order="fill stroke markers"
       d=" M 271.87747243217666 214.91474713903588 L 349.3415221052519 201.31479207056105"
       stroke-opacity="0.4"
       stroke-linejoin="round"
       stroke-miterlimit="10"
       stroke-width="2.6"
       id="path88" />
    <path
       fill="rgb(255,255,255)"
       stroke="none"
       paint-order="stroke fill markers"
       d=" M 346.64644855942856 206.20448312241734 L 354.46318864232694 200.41560806102504 L 345.14204454347407 197.6355410315417 Z"
       fill-opacity="1"
       id="path90" />
    <path
       fill="rgb(153,153,153)"
       stroke="none"
       paint-order="stroke fill markers"
       d=" M 346.64644855942856 206.20448312241734 L 354.46318864232694 200.41560806102504 L 345.14204454347407 197.6355410315417 Z"
       fill-opacity="0.4"
       id="path92" />
    <path
       fill="none"
       stroke="rgb(153,28,24)"
       paint-order="fill stroke markers"
       d=" M 93.13028260692889 188.65463324300728 L 169.52599616554693 209.24667437886418"
       stroke-opacity="0.4"
       stroke-linejoin="round"
       stroke-miterlimit="10"
       stroke-width="2.5"
       id="path94" />
    <path
       fill="rgb(255,255,255)"
       stroke="none"
       paint-order="stroke fill markers"
       d=" M 164.82138629869297 212.4838252867924 L 174.35369458744762 210.54795372903365 L 167.08561236798784 204.08363003268516 Z"
       fill-opacity="1"
       id="path96" />
    <path
       fill="rgb(153,153,153)"
       stroke="none"
       paint-order="stroke fill markers"
       d=" M 164.82138629869297 212.4838252867924 L 174.35369458744762 210.54795372903365 L 167.08561236798784 204.08363003268516 Z"
       fill-opacity="0.4"
       id="path98" />
    <path
       fill="none"
       stroke="rgb(246,210,181)"
       paint-order="fill stroke markers"
       d=" M 182.33178478085986 253.15802988157105 L 123.3175585900805 296.5006767512326"
       stroke-opacity="0.4"
       stroke-linejoin="round"
       stroke-miterlimit="10"
       stroke-width="2.1"
       id="path100" />
    <path
       fill="rgb(255,255,255)"
       stroke="none"
       paint-order="stroke fill markers"
       d=" M 124.36949546176069 290.33091753242996 L 119.93245149193052 298.9868484939034 L 129.51942264300735 297.3429250928835 Z"
       fill-opacity="1"
       id="path102" />
    <path
       fill="rgb(153,153,153)"
       stroke="none"
       paint-order="stroke fill markers"
       d=" M 124.36949546176069 290.33091753242996 L 119.93245149193052 298.9868484939034 L 129.51942264300735 297.3429250928835 Z"
       fill-opacity="0.4"
       id="path104" />
    <path
       fill="rgb(95,158,160)"
       stroke="none"
       paint-order="stroke fill markers"
       d=" M 125.33042403054598 315.45562219747944 L 125.24465985119265 317.63846632505056 L 124.98789607781785 319.8078524927059 L 124.56171574446707 321.95040571332765 L 123.96874639461473 324.0529164338396 L 123.21264388148501 326.10242197649393 L 122.29806982850094 328.0862864580904 L 121.2306628888259 329.9922786943982 L 120.01700398119185 331.8086476094736 L 118.66457571634685 333.52419468495134 L 117.18171626427173 335.12834300263376 L 115.57756794658931 336.61120245470886 L 113.86202087111158 337.96363071955386 L 112.04565195603614 339.1772896271879 L 110.13965971972837 340.24469656686296 L 108.15579523813187 341.159270619847 L 106.10628969547756 341.91537313297675 L 104.00377897496564 342.5083424828291 L 101.86122575434383 342.9345228161799 L 99.69183958668853 343.1912865895547 L 97.50899545911741 343.277050768908 L 95.3261513315463 343.1912865895547 L 93.156765163891 342.9345228161799 L 91.01421194326919 342.5083424828291 L 88.91170122275727 341.91537313297675 L 86.86219568010296 341.159270619847 L 84.87833119850646 340.24469656686296 L 82.97233896219869 339.1772896271879 L 81.15597004712325 337.96363071955386 L 79.44042297164552 336.61120245470886 L 77.83627465396312 335.12834300263376 L 76.35341520188798 333.52419468495134 L 75.00098693704298 331.8086476094736 L 73.78732802940893 329.9922786943982 L 72.7199210897339 328.0862864580904 L 71.80534703674982 326.10242197649393 L 71.0492445236201 324.0529164338396 L 70.45627517376776 321.95040571332765 L 70.03009484041698 319.8078524927059 L 69.77333106704218 317.63846632505056 L 69.68756688768885 315.45562219747944 L 69.77333106704218 313.2727780699083 L 70.03009484041698 311.103391902253 L 70.45627517376776 308.96083868163123 L 71.0492445236201 306.8583279611193 L 71.80534703674982 304.80882241846496 L 72.71992108973389 302.8249579368685 L 73.78732802940891 300.9189657005607 L 75.00098693704298 299.1025967854853 L 76.35341520188798 297.38704971000755 L 77.8362746539631 295.78290139232513 L 79.4404229716455 294.30004194025 L 81.15597004712325 292.947613675405 L 82.9723389621987 291.73395476777097 L 84.87833119850647 290.66654782809593 L 86.86219568010299 289.7519737751118 L 88.91170122275732 288.99587126198213 L 91.01421194326925 288.4029019121298 L 93.15676516389107 287.976721578779 L 95.32615133154638 287.7199578054042 L 97.50899545911751 287.6341936260509 L 99.69183958668863 287.7199578054042 L 101.86122575434395 287.976721578779 L 104.00377897496577 288.40290191212983 L 106.1062896954777 288.9958712619822 L 108.15579523813201 289.75197377511194 L 110.13965971972853 290.666547828096 L 112.0456519560363 291.733954767771 L 113.86202087111174 292.94761367540514 L 115.57756794658947 294.30004194025014 L 117.18171626427187 295.7829013923253 L 118.664575716347 297.3870497100077 L 120.01700398119199 299.1025967854855 L 121.23066288882605 300.91896570056093 L 122.29806982850106 302.8249579368687 L 123.2126438814851 304.80882241846524 L 123.96874639461481 306.8583279611196 L 124.56171574446714 308.9608386816315 L 124.98789607781791 311.10339190225335 L 125.24465985119268 313.27277806990867 Z"
       fill-opacity="0.75"
       id="path106" />
    <text
       fill="rgb(0,0,0)"
       stroke="none"
       font-family="Helvetica Neue, Helvetica, sans-serif"
       font-size="12.17142857142857px"
       font-style="normal"
       font-weight="bold"
       text-decoration="normal"
       x="97.50899545911741"
       y="321.45562219747944"
       text-anchor="middle"
       dominant-baseline="text-after-edge"
       fill-opacity="0.75"
       id="text108">VSsrna24</text>
    <path
       fill="rgb(95,158,160)"
       stroke="none"
       paint-order="stroke fill markers"
       d=" M 364.63993301637606 323.24439031633773 L 364.55317798000834 325.4524534389642 L 364.2934477445535 327.64690311818424 L 363.8623436332821 329.8142098419968 L 363.2625235463968 331.94101144374696 L 362.49768557419367 334.0141954843267 L 361.5725451971058 336.0209800947221 L 360.4928062131983 337.94899278048655 L 359.2651255723567 339.786346702283 L 357.8970723339769 341.5217139622015 L 356.3970810011974 343.14439544401625 L 354.77439951938265 344.6443867767957 L 353.0390322594642 346.0124400151755 L 351.2016783376677 347.24012065601715 L 349.2736656519033 348.31985963992463 L 347.2668810415079 349.2450000170125 L 345.1936970009281 350.0098379892156 L 343.06689539917795 350.6096580761009 L 340.8995886753654 351.0407621873723 L 338.70513899614537 351.3004924228272 L 336.4970758735189 351.3872474591949 L 334.2890127508924 351.3004924228272 L 332.0945630716724 351.0407621873723 L 329.92725634785984 350.6096580761009 L 327.80045474610966 350.0098379892156 L 325.7272707055299 349.2450000170125 L 323.7204860951345 348.31985963992463 L 321.7924734093701 347.2401206560172 L 319.9551194875736 346.0124400151755 L 318.21975222765514 344.6443867767957 L 316.59707074584037 343.14439544401625 L 315.0970794130609 341.5217139622015 L 313.7290261746811 339.786346702283 L 312.50134553383947 337.94899278048655 L 311.421606549932 336.0209800947221 L 310.4964661728441 334.0141954843267 L 309.731628200641 331.94101144374696 L 309.1318081137557 329.8142098419968 L 308.7007040024843 327.64690311818424 L 308.44097376702945 325.4524534389642 L 308.3542187306617 323.24439031633773 L 308.44097376702945 321.03632719371126 L 308.7007040024843 318.8418775144912 L 309.1318081137557 316.6745707906787 L 309.731628200641 314.5477691889285 L 310.4964661728441 312.47458514834875 L 311.421606549932 310.46780053795334 L 312.5013455338394 308.5397878521889 L 313.7290261746811 306.70243393039243 L 315.0970794130609 304.96706667047397 L 316.59707074584037 303.3443851886592 L 318.21975222765514 301.84439385587973 L 319.9551194875736 300.47634061749994 L 321.7924734093701 299.24865997665825 L 323.7204860951345 298.16892099275077 L 325.72727070553 297.24378061566296 L 327.8004547461097 296.47894264345985 L 329.9272563478599 295.87912255657454 L 332.09456307167244 295.44801844530315 L 334.2890127508925 295.1882882098483 L 336.497075873519 295.10153317348056 L 338.7051389961455 295.1882882098483 L 340.8995886753655 295.44801844530315 L 343.06689539917807 295.8791225565746 L 345.19369700092824 296.4789426434599 L 347.266881041508 297.243780615663 L 349.27366565190346 298.1689209927509 L 351.2016783376679 299.24865997665836 L 353.03903225946436 300.47634061750006 L 354.77439951938277 301.84439385587984 L 356.3970810011976 303.3443851886593 L 357.89707233397706 304.96706667047414 L 359.26512557235685 306.7024339303926 L 360.4928062131985 308.5397878521891 L 361.57254519710597 310.46780053795356 L 362.4976855741938 312.47458514834904 L 363.2625235463969 314.5477691889288 L 363.86234363328214 316.67457079067896 L 364.29344774455353 318.84187751449156 L 364.5531779800084 321.03632719371154 Z"
       fill-opacity="0.75"
       id="path110" />
    <text
       fill="rgb(0,0,0)"
       stroke="none"
       font-family="Helvetica Neue, Helvetica, sans-serif"
       font-size="12.342857142857143px"
       font-style="normal"
       font-weight="bold"
       text-decoration="normal"
       x="336.4970758735189"
       y="329.24439031633773"
       text-anchor="middle"
       dominant-baseline="text-after-edge"
       fill-opacity="0.75"
       id="text112">VqmR</text>
    <path
       fill="rgb(222,184,135)"
       stroke="none"
       paint-order="stroke fill markers"
       d=" M 246.70351425524402 385.87476921565224 L 246.60883236276152 388.28458429872177 L 246.3253704306661 390.6795420704593 L 245.85487609602978 393.0448768197979 L 245.20025011288087 395.3660054714542 L 244.36552846809067 397.62861749543714 L 243.35585749817244 399.81876313622405 L 242.1774621604054 401.9229394176421 L 240.83760765390312 403.92817339320675 L 239.34455462724497 405.8221021286507 L 237.70750824883083 407.59304892352475 L 235.93656145395678 409.2300953019389 L 234.04263271851283 410.72314832859706 L 232.03739874294814 412.0630028350994 L 229.93322246153008 413.2413981728664 L 227.7430768207432 414.2510691427846 L 225.48046479676026 415.0857907875748 L 223.15933614510396 415.74041677072375 L 220.79400139576538 416.21091110536 L 218.39904362402783 416.49437303745543 L 215.9892285409583 416.58905492993796 L 213.57941345788876 416.49437303745543 L 211.1844556861512 416.21091110536 L 208.81912093681262 415.74041677072375 L 206.49799228515633 415.0857907875748 L 204.2353802611734 414.2510691427846 L 202.0452346203865 413.2413981728664 L 199.94105833896845 412.0630028350994 L 197.93582436340375 410.72314832859706 L 196.0418956279598 409.2300953019389 L 194.27094883308575 407.59304892352475 L 192.6339024546716 405.8221021286507 L 191.1408494280135 403.92817339320675 L 189.80099492151118 401.9229394176421 L 188.62259958374415 399.81876313622405 L 187.61292861382591 397.62861749543714 L 186.77820696903572 395.3660054714542 L 186.1235809858868 393.0448768197979 L 185.6530866512505 390.6795420704593 L 185.36962471915507 388.28458429872177 L 185.27494282667257 385.87476921565224 L 185.36962471915507 383.4649541325827 L 185.65308665125048 381.06999636084515 L 186.1235809858868 378.7046616115066 L 186.77820696903572 376.3835329598503 L 187.61292861382591 374.12092093586733 L 188.62259958374415 371.9307752950804 L 189.80099492151118 369.82659901366236 L 191.14084942801347 367.8213650380977 L 192.6339024546716 365.92743630265375 L 194.27094883308575 364.1564895077797 L 196.04189562795978 362.5194431293656 L 197.93582436340375 361.0263901027074 L 199.94105833896845 359.6865355962051 L 202.0452346203865 358.50814025843806 L 204.23538026117342 357.49846928851986 L 206.49799228515639 356.66374764372966 L 208.81912093681268 356.0091216605807 L 211.18445568615127 355.53862732594445 L 213.57941345788885 355.255165393849 L 215.9892285409584 355.1604835013665 L 218.39904362402794 355.25516539384904 L 220.79400139576552 355.53862732594445 L 223.1593361451041 356.0091216605808 L 225.4804647967604 356.6637476437297 L 227.74307682074334 357.4984692885199 L 229.93322246153025 358.5081402584382 L 232.0373987429483 359.6865355962052 L 234.042632718513 361.0263901027075 L 235.93656145395695 362.5194431293657 L 237.707508248831 364.1564895077799 L 239.34455462724512 365.9274363026539 L 240.83760765390326 367.8213650380979 L 242.17746216040555 369.82659901366264 L 243.35585749817258 371.9307752950807 L 244.3655284680908 374.1209209358676 L 245.20025011288095 376.3835329598506 L 245.85487609602987 378.7046616115069 L 246.32537043066614 381.0699963608455 L 246.60883236276155 383.46495413258305 Z"
       fill-opacity="0.75"
       id="path114" />
    <text
       fill="rgb(0,0,0)"
       stroke="none"
       font-family="Helvetica Neue, Helvetica, sans-serif"
       font-size="13.714285714285715px"
       font-style="normal"
       font-weight="bold"
       text-decoration="normal"
       x="215.9892285409583"
       y="392.87476921565224"
       text-anchor="middle"
       dominant-baseline="text-after-edge"
       fill-opacity="0.75"
       id="text116">cyaA</text>
    <path
       fill="rgb(95,158,160)"
       stroke="none"
       paint-order="stroke fill markers"
       d=" M 323.6864101663481 385.95088719240425 L 323.5976734159517 388.2093883051415 L 323.3320102563367 390.4539650074909 L 322.8910585892241 392.67077873768494 L 322.2775370282729 394.84616210191166 L 321.495228137923 396.9667031383422 L 320.54895511262754 399.0193280063355 L 319.4445520402552 400.99138159101335 L 318.1888279329984 402.87070552625187 L 316.78952474754897 404.6457131550517 L 315.25526965336087 406.3054609651313 L 313.59552184328123 407.8397160593194 L 311.8205142144814 409.2390192447688 L 309.9411902792429 410.49474335202564 L 307.96913669456507 411.599146424398 L 305.91651182657176 412.54541944969344 L 303.7959707901412 413.32772834004334 L 301.6205874259145 413.94124990099453 L 299.4037736957205 414.3822015681071 L 297.15919699337104 414.64786472772215 L 294.9006958806338 414.73660147811853 L 292.64219476789657 414.64786472772215 L 290.39761806554714 414.3822015681071 L 288.1808043353531 413.94124990099453 L 286.0054209711264 413.32772834004334 L 283.88487993469585 412.54541944969344 L 281.83225506670254 411.599146424398 L 279.8602014820247 410.49474335202564 L 277.9808775467862 409.2390192447688 L 276.2058699179864 407.8397160593194 L 274.54612210790674 406.3054609651313 L 273.01186701371864 404.6457131550517 L 271.61256382826923 402.87070552625187 L 270.3568397210124 400.99138159101335 L 269.25243664864007 399.0193280063355 L 268.3061636233446 396.9667031383422 L 267.5238547329947 394.84616210191166 L 266.9103331720435 392.67077873768494 L 266.46938150493094 390.4539650074909 L 266.2037183453159 388.2093883051415 L 266.1149815949195 385.95088719240425 L 266.2037183453159 383.692386079667 L 266.46938150493094 381.4478093773176 L 266.9103331720435 379.23099564712356 L 267.5238547329947 377.05561228289685 L 268.3061636233446 374.9350712464663 L 269.25243664864007 372.882446378473 L 270.3568397210124 370.91039279379515 L 271.61256382826923 369.03106885855664 L 273.01186701371864 367.2560612297568 L 274.54612210790674 365.5963134196772 L 276.2058699179864 364.0620583254891 L 277.9808775467862 362.6627551400397 L 279.8602014820247 361.40703103278287 L 281.8322550667026 360.3026279604105 L 283.8848799346959 359.35635493511506 L 286.00542097112645 358.57404604476517 L 288.1808043353532 357.96052448381397 L 290.39761806554725 357.5195728167013 L 292.6421947678966 357.25390965708635 L 294.9006958806339 357.16517290669 L 297.15919699337115 357.25390965708635 L 299.4037736957206 357.5195728167014 L 301.62058742591466 357.960524483814 L 303.7959707901414 358.5740460447652 L 305.9165118265719 359.3563549351151 L 307.9691366945652 360.3026279604106 L 309.9411902792431 361.407031032783 L 311.8205142144816 362.6627551400398 L 313.5955218432814 364.0620583254892 L 315.255269653361 365.59631341967736 L 316.78952474754914 367.256061229757 L 318.1888279329985 369.03106885855686 L 319.4445520402553 370.9103927937954 L 320.54895511262765 372.8824463784733 L 321.4952281379231 374.9350712464666 L 322.27753702827295 377.05561228289713 L 322.89105858922414 379.23099564712385 L 323.33201025633673 381.4478093773179 L 323.5976734159517 383.69238607966736 Z"
       fill-opacity="0.75"
       id="path118" />
    <text
       fill="rgb(0,0,0)"
       stroke="none"
       font-family="Helvetica Neue, Helvetica, sans-serif"
       font-size="12.685714285714285px"
       font-style="normal"
       font-weight="bold"
       text-decoration="normal"
       x="294.9006958806338"
       y="392.45088719240425"
       text-anchor="middle"
       dominant-baseline="text-after-edge"
       fill-opacity="0.75"
       id="text120">Vcr227</text>
    <path
       fill="rgb(95,158,160)"
       stroke="none"
       paint-order="stroke fill markers"
       d=" M 411.60098554399264 195.4379822939507 L 411.51224879359626 197.69648340668797 L 411.2465856339812 199.94106010903735 L 410.80563396686864 202.15787383923143 L 410.19211240591744 204.33325720345812 L 409.40980351556755 206.45379823988864 L 408.4635304902721 208.50642310788194 L 407.35912741789974 210.4784766925598 L 406.10340331064293 212.35780062779833 L 404.7041001251935 214.13280825659814 L 403.1698450310054 215.79255606667775 L 401.5100972209258 217.32681116086587 L 399.735089592126 218.72611434631526 L 397.85576565688746 219.98183845357207 L 395.8837120722096 221.08624152594444 L 393.8310872042163 222.0325145512399 L 391.71054616778576 222.81482344158977 L 389.53516280355905 223.42834500254096 L 387.318349073365 223.8692966696536 L 385.0737723710156 224.1349598292686 L 382.81527125827836 224.223696579665 L 380.5567701455411 224.1349598292686 L 378.3121934431917 223.8692966696536 L 376.09537971299767 223.42834500254096 L 373.91999634877095 222.81482344158977 L 371.7994553123404 222.0325145512399 L 369.7468304443471 221.08624152594444 L 367.77477685966926 219.9818384535721 L 365.89545292443074 218.72611434631526 L 364.12044529563093 217.3268111608659 L 362.4606974855513 215.79255606667775 L 360.9264423913632 214.13280825659814 L 359.5271392059138 212.35780062779833 L 358.271415098657 210.4784766925598 L 357.1670120262846 208.50642310788194 L 356.22073900098917 206.45379823988867 L 355.4384301106393 204.33325720345812 L 354.8249085496881 202.15787383923143 L 354.3839568825755 199.94106010903735 L 354.11829372296046 197.69648340668797 L 354.0295569725641 195.4379822939507 L 354.11829372296046 193.17948118121348 L 354.3839568825755 190.93490447886407 L 354.8249085496881 188.71809074867002 L 355.4384301106393 186.5427073844433 L 356.22073900098917 184.42216634801278 L 357.1670120262846 182.36954148001948 L 358.271415098657 180.3974878953416 L 359.5271392059138 178.5181639601031 L 360.9264423913632 176.74315633130328 L 362.4606974855513 175.08340852122367 L 364.12044529563093 173.54915342703555 L 365.89545292443074 172.14985024158617 L 367.77477685966926 170.89412613432933 L 369.74683044434715 169.78972306195698 L 371.79945531234046 168.84345003666152 L 373.919996348771 168.06114114631163 L 376.0953797129977 167.44761958536043 L 378.3121934431918 167.0066679182478 L 380.5567701455412 166.7410047586328 L 382.81527125827847 166.65226800823643 L 385.0737723710157 166.7410047586328 L 387.31834907336514 167.00666791824784 L 389.5351628035592 167.44761958536048 L 391.71054616778594 168.06114114631168 L 393.83108720421643 168.84345003666158 L 395.88371207220973 169.78972306195706 L 397.8557656568876 170.89412613432944 L 399.73508959212614 172.14985024158628 L 401.51009722092596 173.54915342703566 L 403.16984503100554 175.08340852122382 L 404.7041001251937 176.74315633130345 L 406.10340331064305 178.5181639601033 L 407.35912741789986 180.39748789534184 L 408.4635304902722 182.3695414800197 L 409.40980351556766 184.42216634801304 L 410.1921124059175 186.5427073844436 L 410.8056339668687 188.7180907486703 L 411.2465856339813 190.93490447886438 L 411.51224879359626 193.1794811812138 Z"
       fill-opacity="0.75"
       id="path122" />
    <text
       fill="rgb(0,0,0)"
       stroke="none"
       font-family="Helvetica Neue, Helvetica, sans-serif"
       font-size="12.685714285714285px"
       font-style="normal"
       font-weight="bold"
       text-decoration="normal"
       x="382.81527125827836"
       y="201.9379822939507"
       text-anchor="middle"
       dominant-baseline="text-after-edge"
       fill-opacity="0.75"
       id="text124">TfoR</text>
    <path
       fill="rgb(222,184,135)"
       stroke="none"
       paint-order="stroke fill markers"
       d=" M 258.63882682751444 50 L 258.5530626481611 52.182844127571116 L 258.2962988747863 54.35223029522642 L 257.8701185414355 56.494783515848226 L 257.27714919158313 58.59729423636014 L 256.52104667845344 60.646799779014465 L 255.60647262546937 62.63066426061096 L 254.53906568579436 64.53665649691872 L 253.3254067781603 66.35302541199417 L 251.9729785133153 68.0685724874719 L 250.49011906124016 69.6727208051543 L 248.88597074355775 71.15558025722943 L 247.17042366808002 72.50800852207443 L 245.35405475300456 73.72166742970849 L 243.4480625166968 74.78907436938351 L 241.4641980351003 75.70364842236759 L 239.414692492446 76.45975093549731 L 237.3121817719341 77.05272028534965 L 235.1696285513123 77.47890061870044 L 233.00024238365697 77.73566439207524 L 230.81739825608585 77.82142857142857 L 228.63455412851474 77.73566439207524 L 226.46516796085942 77.47890061870044 L 224.32261474023764 77.05272028534965 L 222.2201040197257 76.45975093549731 L 220.1705984770714 75.70364842236759 L 218.1867339954749 74.78907436938353 L 216.28074175916714 73.7216674297085 L 214.46437284409168 72.50800852207443 L 212.74882576861395 71.15558025722943 L 211.14467745093154 69.67272080515431 L 209.6618179988564 68.0685724874719 L 208.30938973401143 66.35302541199417 L 207.09573082637735 64.53665649691872 L 206.02832388670234 62.63066426061096 L 205.11374983371826 60.646799779014465 L 204.35764732058854 58.59729423636015 L 203.76467797073622 56.494783515848226 L 203.33849763738542 54.35223029522643 L 203.0817338640106 52.182844127571116 L 202.99596968465727 50 L 203.0817338640106 47.81715587242889 L 203.33849763738542 45.64776970477358 L 203.76467797073622 43.50521648415178 L 204.35764732058854 41.40270576363986 L 205.11374983371826 39.35320022098554 L 206.02832388670234 37.369335739389044 L 207.09573082637735 35.46334350308128 L 208.3093897340114 33.64697458800584 L 209.6618179988564 31.931427512528106 L 211.14467745093154 30.327279194845698 L 212.74882576861395 28.844419742770576 L 214.46437284409168 27.49199147792557 L 216.28074175916714 26.2783325702915 L 218.1867339954749 25.21092563061647 L 220.17059847707142 24.2963515776324 L 222.22010401972574 23.540249064502675 L 224.32261474023767 22.94727971465034 L 226.4651679608595 22.52109938129955 L 228.63455412851482 22.264335607924753 L 230.81739825608594 22.178571428571427 L 233.00024238365708 22.264335607924767 L 235.1696285513124 22.521099381299578 L 237.3121817719342 22.94727971465038 L 239.41469249244614 23.540249064502735 L 241.46419803510045 24.29635157763247 L 243.44806251669695 25.210925630616554 L 245.35405475300473 26.2783325702916 L 247.17042366808016 27.491991477925684 L 248.8859707435579 28.8444197427707 L 250.4901190612403 30.327279194845847 L 251.97297851331544 31.931427512528277 L 253.3254067781604 33.64697458800603 L 254.53906568579447 35.4633435030815 L 255.6064726254695 37.36933573938927 L 256.52104667845356 39.3532002209858 L 257.27714919158325 41.40270576364013 L 257.87011854143555 43.505216484152065 L 258.2962988747863 45.647769704773886 L 258.55306264816113 47.81715587242921 Z"
       fill-opacity="0.75"
       id="path126" />
    <text
       fill="rgb(0,0,0)"
       stroke="none"
       font-family="Helvetica Neue, Helvetica, sans-serif"
       font-size="12.17142857142857px"
       font-style="normal"
       font-weight="bold"
       text-decoration="normal"
       x="230.81739825608585"
       y="56"
       text-anchor="middle"
       dominant-baseline="text-after-edge"
       fill-opacity="0.75"
       id="text128">tmRNA</text>
    <path
       fill="rgb(95,158,160)"
       stroke="none"
       paint-order="stroke fill markers"
       d=" M 205.29058530499753 74.59174985536427 L 205.1473514188118 78.23729569614736 L 204.71853284479303 81.860365534555 L 204.0067733920467 85.43862194024045 L 203.01646129428306 88.95000377257165 L 201.75370215489696 92.37286219489934 L 200.22628130389276 95.68609414683392 L 198.4436157987359 98.86927245163032 L 196.41669636506205 101.90277175652525 L 194.15801963519897 104.76788952956316 L 191.68151110227248 107.44696136692492 L 189.0024392649107 109.92346989985143 L 186.1373214918728 112.18214662971451 L 183.10382218697788 114.20906606338835 L 179.92064388218148 115.99173156854522 L 176.60741193024688 117.51915241954941 L 173.1845535079192 118.78191155893552 L 169.67317167558798 119.77222365669917 L 166.09491526990254 120.48398310944549 L 162.4718454314949 120.91280168346425 L 158.8262995907118 121.05603556964999 L 155.18075374992873 120.91280168346425 L 151.55768391152108 120.48398310944549 L 147.97942750583564 119.77222365669917 L 144.46804567350443 118.78191155893552 L 141.04518725117674 117.51915241954941 L 137.73195529924214 115.99173156854522 L 134.54877699444577 114.20906606338835 L 131.51527768955083 112.18214662971451 L 128.65015991651293 109.92346989985143 L 125.97108807915116 107.44696136692494 L 123.49457954622466 104.76788952956316 L 121.23590281636157 101.90277175652525 L 119.20898338268773 98.86927245163032 L 117.42631787753086 95.68609414683394 L 115.89889702652667 92.37286219489934 L 114.63613788714056 88.95000377257165 L 113.64582578937691 85.43862194024045 L 112.9340663366306 81.860365534555 L 112.50524776261183 78.23729569614736 L 112.36201387642609 74.59174985536427 L 112.50524776261183 70.9462040145812 L 112.9340663366306 67.32313417617355 L 113.64582578937691 63.7448777704881 L 114.63613788714056 60.2334959381569 L 115.89889702652667 56.810637515829214 L 117.42631787753086 53.49740556389462 L 119.20898338268773 50.314227259098224 L 121.23590281636157 47.280727954203286 L 123.49457954622466 44.415610181165384 L 125.97108807915114 41.736538343803616 L 128.6501599165129 39.260029810877136 L 131.51527768955083 37.00135308101404 L 134.54877699444577 34.97443364734019 L 137.7319552992422 33.1917681421833 L 141.0451872511768 31.664347291179105 L 144.4680456735045 30.401588151793 L 147.97942750583573 29.411276054029344 L 151.5576839115212 28.69951660128303 L 155.18075374992887 28.270698027264274 L 158.82629959071198 28.127464141078555 L 162.47184543149507 28.270698027264302 L 166.09491526990274 28.69951660128308 L 169.6731716755882 29.411276054029415 L 173.18455350791942 30.4015881517931 L 176.6074119302471 31.664347291179226 L 179.9206438821817 33.19176814218345 L 183.1038221869781 34.974433647340355 L 186.13732149187305 37.00135308101422 L 189.00243926491095 39.26002981087734 L 191.68151110227274 41.73653834380387 L 194.1580196351992 44.41561018116567 L 196.41669636506228 47.28072795420361 L 198.44361579873612 50.31422725909857 L 200.22628130389296 53.49740556389501 L 201.75370215489716 56.81063751582963 L 203.0164612942832 60.233495938157354 L 204.00677339204682 63.744877770488586 L 204.71853284479312 67.32313417617407 L 205.14735141881184 70.94620401458174 Z"
       fill-opacity="0.75"
       id="path130" />
    <text
       fill="rgb(0,0,0)"
       stroke="none"
       font-family="Helvetica Neue, Helvetica, sans-serif"
       font-size="22.114285714285714px"
       font-style="normal"
       font-weight="bold"
       text-decoration="normal"
       x="158.8262995907118"
       y="85.59174985536427"
       text-anchor="middle"
       dominant-baseline="text-after-edge"
       fill-opacity="0.75"
       id="text132">Spot42</text>
    <path
       fill="rgb(222,184,135)"
       stroke="none"
       paint-order="stroke fill markers"
       d=" M 94.11117087653702 181.24663579954256 L 94.02342498315497 183.47991791722444 L 93.76072828562005 185.69943110800912 L 93.32470039642801 187.89149133501243 L 92.71802957250978 190.04258381800088 L 91.94445614123327 192.139446356506 L 91.00874944004163 194.16915109570039 L 89.9166784119017 196.11918423092152 L 88.67497603785247 197.97752315943902 L 87.29129782593789 199.73271060379815 L 85.77417461245409 201.37392524974535 L 84.13295996650689 202.89104846322914 L 82.37777252214777 204.27472667514374 L 80.51943359363027 205.51642904919296 L 78.5694004584091 206.60850007733288 L 76.53969571921475 207.54420677852454 L 74.44283318070961 208.31778020980104 L 72.29174069772118 208.9244510337193 L 70.09968047071787 209.3604789229113 L 67.88016727993318 209.62317562044623 L 65.6468851622513 209.71092151382828 L 63.41360304456943 209.62317562044623 L 61.194089853784725 209.3604789229113 L 59.002029626781415 208.9244510337193 L 56.850937143792976 208.31778020980104 L 54.75407460528785 207.54420677852454 L 52.72436986609348 206.60850007733288 L 50.77433673087232 205.51642904919296 L 48.91599780235483 204.27472667514374 L 47.160810357995715 202.89104846322917 L 45.5195957120485 201.37392524974535 L 44.0024724985647 199.73271060379815 L 42.618794286650115 197.97752315943904 L 41.37709191260089 196.11918423092155 L 40.28502088446096 194.16915109570039 L 39.349314183269314 192.139446356506 L 38.57574075199281 190.04258381800088 L 37.969069928074575 187.89149133501243 L 37.533042038882556 185.69943110800912 L 37.270345341347614 183.47991791722444 L 37.18259944796558 181.24663579954256 L 37.270345341347614 179.01335368186068 L 37.53304203888255 176.793840491076 L 37.96906992807457 174.6017802640727 L 38.57574075199281 172.45068778108424 L 39.34931418326931 170.35382524257912 L 40.28502088446096 168.32412050338473 L 41.37709191260088 166.3740873681636 L 42.61879428665011 164.5157484396461 L 44.0024724985647 162.76056099528697 L 45.519595712048485 161.11934634933976 L 47.1608103579957 159.60222313585598 L 48.91599780235482 158.21854492394138 L 50.77433673087233 156.97684254989215 L 52.7243698660935 155.8847715217522 L 54.754074605287876 154.94906482056055 L 56.85093714379301 154.17549138928408 L 59.00202962678147 153.56882056536583 L 61.19408985378479 153.1327926761738 L 63.413603044569506 152.8700959786389 L 65.6468851622514 152.78235008525684 L 67.88016727993327 152.8700959786389 L 70.09968047071798 153.13279267617384 L 72.29174069772131 153.56882056536585 L 74.44283318070975 154.17549138928413 L 76.53969571921489 154.94906482056064 L 78.56940045840926 155.8847715217523 L 80.51943359363042 156.97684254989224 L 82.37777252214792 158.2185449239415 L 84.13295996650703 159.6022231358561 L 85.77417461245425 161.1193463493399 L 87.29129782593805 162.76056099528716 L 88.67497603785262 164.5157484396463 L 89.91667841190184 166.3740873681638 L 91.00874944004175 168.324120503385 L 91.94445614123339 170.35382524257938 L 92.71802957250986 172.45068778108453 L 93.32470039642809 174.60178026407297 L 93.76072828562009 176.7938404910763 L 94.023424983155 179.01335368186102 Z"
       fill-opacity="0.75"
       id="path134" />
    <text
       fill="rgb(0,0,0)"
       stroke="none"
       font-family="Helvetica Neue, Helvetica, sans-serif"
       font-size="12.514285714285714px"
       font-style="normal"
       font-weight="bold"
       text-decoration="normal"
       x="65.6468851622513"
       y="187.74663579954256"
       text-anchor="middle"
       dominant-baseline="text-after-edge"
       fill-opacity="0.75"
       id="text136">VC2033</text>
    <path
       fill="rgb(85,85,85)"
       stroke="none"
       paint-order="stroke fill markers"
       d=" M 272.6306788064546 223.56074723072828 L 272.4765454931111 227.48370201712052 L 272.0150958362116 231.38247048273982 L 271.2491748263385 235.23301542352354 L 270.1835046212123 239.01159694947566 L 268.824655432019 242.69491884898278 L 267.18100501587304 246.26027221770562 L 265.2626870241593 249.6856754665257 L 263.08152852520203 252.95000984535193 L 260.6509770864562 256.03314964723745 L 257.98601786578206 258.91608629005566 L 255.10308122296385 261.58104551072984 L 252.0199414210783 264.01159694947563 L 248.7556070422521 266.1927554484329 L 245.330203793432 268.1110734401467 L 241.76485042470915 269.7547238562926 L 238.08152852520203 271.11357304548596 L 234.30294699924994 272.1792432506121 L 230.4524020584662 272.94516426048517 L 226.5536335928469 273.4066139173847 L 222.63067880645465 273.5607472307283 L 218.70772402006241 273.4066139173847 L 214.80895555444312 272.94516426048517 L 210.9584106136594 272.1792432506121 L 207.17982908770728 271.11357304548596 L 203.49650718820016 269.7547238562926 L 199.93115381947732 268.1110734401467 L 196.5057505706572 266.1927554484329 L 193.241416191831 264.01159694947563 L 190.15827638994548 261.58104551072984 L 187.27533974712728 258.91608629005566 L 184.6103805264531 256.03314964723745 L 182.17982908770728 252.95000984535193 L 179.99867058875003 249.68567546652574 L 178.08035259703627 246.26027221770562 L 176.4367021808903 242.69491884898278 L 175.07785299169697 239.01159694947566 L 174.01218278657083 235.23301542352357 L 173.24626177669776 231.38247048273982 L 172.78481211979826 227.48370201712055 L 172.63067880645465 223.56074723072828 L 172.78481211979826 219.63779244433604 L 173.24626177669776 215.73902397871674 L 174.0121827865708 211.88847903793302 L 175.07785299169697 208.10989751198093 L 176.4367021808903 204.4265756124738 L 178.08035259703627 200.86122224375094 L 179.99867058875003 197.43581899493086 L 182.17982908770728 194.17148461610464 L 184.6103805264531 191.0883448142191 L 187.27533974712728 188.2054081714009 L 190.15827638994546 185.54044895072676 L 193.24141619183098 183.10989751198093 L 196.50575057065723 180.92873901302366 L 199.93115381947734 179.01042102130987 L 203.4965071882002 177.36677060516394 L 207.17982908770736 176.00792141597057 L 210.95841061365948 174.94225121084443 L 214.80895555444323 174.1763302009714 L 218.70772402006256 173.7148805440719 L 222.63067880645482 173.56074723072828 L 226.5536335928471 173.7148805440719 L 230.45240205846642 174.17633020097142 L 234.30294699925014 174.94225121084452 L 238.08152852520226 176.00792141597069 L 241.7648504247094 177.36677060516405 L 245.33020379343225 179.01042102131004 L 248.75560704225236 180.92873901302383 L 252.01994142107858 183.1098975119811 L 255.1030812229641 185.54044895072698 L 257.9860178657823 188.2054081714012 L 260.65097708645646 191.0883448142194 L 263.08152852520226 194.17148461610498 L 265.2626870241595 197.43581899493122 L 267.18100501587327 200.86122224375137 L 268.8246554320192 204.42657561247427 L 270.1835046212125 208.10989751198142 L 271.2491748263386 211.88847903793354 L 272.01509583621163 215.73902397871728 L 272.4765454931111 219.6377924443366 Z"
       fill-opacity="0.75"
       id="path138" />
    <text
       fill="rgb(0,0,0)"
       stroke="none"
       font-family="Helvetica Neue, Helvetica, sans-serif"
       font-size="24px"
       font-style="normal"
       font-weight="normal"
       text-decoration="normal"
       x="222.63067880645465"
       y="223.56074723072828"
       text-anchor="middle"
       dominant-baseline="text-after-edge"
       fill-opacity="0.75"
       id="text140">Vcr069</text>
    <text
       fill="rgb(0,0,0)"
       stroke="none"
       font-family="Helvetica Neue, Helvetica, sans-serif"
       font-size="24px"
       font-style="normal"
       font-weight="normal"
       text-decoration="normal"
       x="222.63067880645465"
       y="247.56074723072828"
       text-anchor="middle"
       dominant-baseline="text-after-edge"
       fill-opacity="0.75"
       id="text142">VC1803</text>
    <path
       fill="rgb(95,158,160)"
       stroke="none"
       paint-order="stroke fill markers"
       d=" M 391.71242237063615 121.71552553984523 L 391.6246764772541 123.9488076575271 L 391.36197977971915 126.16832084831181 L 390.92595189052713 128.3603810753151 L 390.3192810666089 130.51147355830355 L 389.5457076353324 132.60833609680867 L 388.61000093414077 134.63804083600306 L 387.51792990600086 136.5880739712242 L 386.27622753195163 138.4464128997417 L 384.892549320037 140.20160034410083 L 383.3754261065532 141.84281499004803 L 381.734211460606 143.35993820353184 L 379.9790240162469 144.7436164154464 L 378.1206850877294 145.98531878949564 L 376.17065195250825 147.07738981763555 L 374.1409472133139 148.0130965188272 L 372.04408467480874 148.78666995010371 L 369.8929921918203 149.39334077402196 L 367.700931964817 149.82936866321398 L 365.4814187740323 150.0920653607489 L 363.2481366563504 150.17981125413095 L 361.01485453866854 150.0920653607489 L 358.79534134788383 149.82936866321398 L 356.6032811208805 149.39334077402196 L 354.4521886378921 148.78666995010371 L 352.35532609938696 148.0130965188272 L 350.3256213601926 147.07738981763555 L 348.37558822497147 145.98531878949564 L 346.51724929645394 144.7436164154464 L 344.76206185209486 143.35993820353184 L 343.12084720614763 141.84281499004803 L 341.60372399266384 140.20160034410083 L 340.2200457807493 138.4464128997417 L 338.9783434067 136.58807397122422 L 337.8862723785601 134.63804083600306 L 336.95056567736844 132.60833609680867 L 336.17699224609197 130.51147355830355 L 335.5703214221737 128.3603810753151 L 335.1342935329817 126.16832084831181 L 334.8715968354467 123.94880765752711 L 334.7838509420647 121.71552553984523 L 334.8715968354467 119.48224342216336 L 335.1342935329817 117.26273023137867 L 335.5703214221737 115.07067000437536 L 336.17699224609197 112.91957752138691 L 336.95056567736844 110.82271498288179 L 337.8862723785601 108.79301024368742 L 338.9783434067 106.84297710846626 L 340.2200457807492 104.98463817994877 L 341.60372399266384 103.22945073558965 L 343.12084720614763 101.58823608964244 L 344.7620618520948 100.07111287615865 L 346.51724929645394 98.68743466424405 L 348.37558822497147 97.44573229019481 L 350.32562136019266 96.35366126205489 L 352.355326099387 95.41795456086324 L 354.45218863789216 94.64438112958673 L 356.6032811208806 94.0377103056685 L 358.79534134788395 93.60168241647648 L 361.01485453866866 93.33898571894154 L 363.24813665635054 93.25123982555951 L 365.4814187740324 93.33898571894156 L 367.70093196481713 93.6016824164765 L 369.89299219182044 94.03771030566854 L 372.0440846748089 94.6443811295868 L 374.140947213314 95.41795456086331 L 376.17065195250836 96.35366126205498 L 378.12068508772956 97.44573229019491 L 379.9790240162471 98.68743466424417 L 381.73421146060616 100.07111287615876 L 383.3754261065534 101.58823608964259 L 384.8925493200372 103.22945073558982 L 386.27622753195175 104.98463817994896 L 387.517929906001 106.84297710846647 L 388.6100009341409 108.79301024368766 L 389.5457076353325 110.82271498288205 L 390.319281066609 112.91957752138718 L 390.92595189052724 115.07067000437566 L 391.3619797797192 117.26273023137898 L 391.6246764772541 119.48224342216369 Z"
       fill-opacity="0.75"
       id="path144" />
    <text
       fill="rgb(0,0,0)"
       stroke="none"
       font-family="Helvetica Neue, Helvetica, sans-serif"
       font-size="12.514285714285714px"
       font-style="normal"
       font-weight="bold"
       text-decoration="normal"
       x="363.2481366563504"
       y="128.21552553984523"
       text-anchor="middle"
       dominant-baseline="text-after-edge"
       fill-opacity="0.75"
       id="text146">VadR</text>
    <path
       fill="rgb(222,184,135)"
       stroke="none"
       paint-order="stroke fill markers"
       d=" M 120.34826861717842 110.514447520508 L 120.26250443782509 112.69729164807912 L 120.00574066445029 114.86667781573442 L 119.5795603310995 117.00923103635623 L 118.98659098124716 119.11174175686814 L 118.23048846811744 121.16124729952246 L 117.31591441513338 123.14511178111896 L 116.24850747545834 125.05110401742672 L 115.03484856782428 126.86747293250217 L 113.68242030297928 128.58302000797988 L 112.19956085090416 130.1871683256623 L 110.59541253322175 131.67002777773743 L 108.87986545774402 133.02245604258243 L 107.06349654266857 134.2361149502165 L 105.1575043063608 135.30352188989153 L 103.17363982476431 136.21809594287558 L 101.12413428210999 136.9741984560053 L 99.02162356159808 137.56716780585765 L 96.87907034097627 137.99334813920845 L 94.70968417332097 138.25011191258324 L 92.52684004574985 138.33587609193657 L 90.34399591817873 138.25011191258324 L 88.17460975052343 137.99334813920845 L 86.03205652990162 137.56716780585765 L 83.92954580938971 136.9741984560053 L 81.88004026673539 136.21809594287558 L 79.8961757851389 135.30352188989153 L 77.99018354883113 134.2361149502165 L 76.17381463375568 133.02245604258243 L 74.45826755827795 131.67002777773743 L 72.85411924059555 130.1871683256623 L 71.37125978852042 128.5830200079799 L 70.01883152367542 126.86747293250217 L 68.80517261604136 125.05110401742672 L 67.73776567636634 123.14511178111897 L 66.82319162338226 121.16124729952247 L 66.06708911025254 119.11174175686814 L 65.4741197604002 117.00923103635623 L 65.04793942704941 114.86667781573442 L 64.79117565367461 112.69729164807912 L 64.70541147432128 110.514447520508 L 64.79117565367461 108.33160339293688 L 65.04793942704941 106.16221722528158 L 65.4741197604002 104.01966400465977 L 66.06708911025254 101.91715328414786 L 66.82319162338226 99.86764774149354 L 67.73776567636632 97.88378325989704 L 68.80517261604135 95.97779102358928 L 70.01883152367542 94.16142210851385 L 71.37125978852042 92.4458750330361 L 72.85411924059554 90.8417267153537 L 74.45826755827794 89.35886726327857 L 76.17381463375568 88.00643899843357 L 77.99018354883114 86.7927800907995 L 79.89617578513891 85.72537315112447 L 81.88004026673542 84.8107990981404 L 83.92954580938975 84.05469658501067 L 86.03205652990168 83.46172723515834 L 88.1746097505235 83.03554690180755 L 90.34399591817882 82.77878312843275 L 92.52684004574995 82.69301894907943 L 94.70968417332107 82.77878312843276 L 96.87907034097638 83.03554690180758 L 99.0216235615982 83.46172723515838 L 101.12413428211013 84.05469658501073 L 103.17363982476445 84.81079909814048 L 105.15750430636096 85.72537315112456 L 107.06349654266873 86.7927800907996 L 108.87986545774417 88.00643899843368 L 110.5954125332219 89.3588672632787 L 112.1995608509043 90.84172671535384 L 113.68242030297944 92.44587503303627 L 115.03484856782443 94.16142210851403 L 116.24850747545848 95.97779102358949 L 117.31591441513349 97.88378325989727 L 118.23048846811754 99.8676477414938 L 118.98659098124725 101.91715328414813 L 119.57956033109957 104.01966400466007 L 120.00574066445034 106.16221722528189 L 120.26250443782511 108.33160339293721 Z"
       fill-opacity="0.75"
       id="path148" />
    <text
       fill="rgb(0,0,0)"
       stroke="none"
       font-family="Helvetica Neue, Helvetica, sans-serif"
       font-size="12.17142857142857px"
       font-style="normal"
       font-weight="bold"
       text-decoration="normal"
       x="92.52684004574985"
       y="116.514447520508"
       text-anchor="middle"
       dominant-baseline="text-after-edge"
       fill-opacity="0.75"
       id="text150">VC1034</text>
    <path
       fill="rgb(95,158,160)"
       stroke="none"
       paint-order="stroke fill markers"
       d=" M 327.371539586896 82.5243269898478 L 327.283793693514 84.75760910752966 L 327.021096995979 86.97712229831437 L 326.585069106787 89.16918252531767 L 325.97839828286874 91.32027500830611 L 325.20482485159226 93.41713754681125 L 324.26911815040063 95.4468422860056 L 323.1770471222607 97.39687542122677 L 321.9353447482115 99.25521434974426 L 320.55166653629686 101.01040179410339 L 319.0345433228131 102.65161644005059 L 317.39332867686585 104.16873965353439 L 315.63814123250677 105.55241786544897 L 313.77980230398924 106.7941202394982 L 311.8297691687681 107.88619126763813 L 309.80006442957375 108.82189796882977 L 307.7032018910686 109.59547140010628 L 305.5521094080802 110.20214222402451 L 303.3600491810769 110.63817011321655 L 301.14053599029216 110.90086681075147 L 298.9072538726103 110.98861270413352 L 296.6739717549284 110.90086681075147 L 294.4544585641437 110.63817011321655 L 292.2623983371404 110.20214222402453 L 290.11130585415196 109.59547140010628 L 288.0144433156468 108.82189796882977 L 285.98473857645246 107.88619126763813 L 284.0347054412313 106.7941202394982 L 282.1763665127138 105.55241786544897 L 280.4211790683547 104.16873965353439 L 278.7799644224075 102.65161644005059 L 277.2628412089237 101.01040179410339 L 275.8791629970091 99.25521434974426 L 274.63746062295985 97.39687542122677 L 273.54538959481994 95.4468422860056 L 272.6096828936283 93.41713754681125 L 271.8361094623518 91.32027500830613 L 271.2294386384336 89.16918252531768 L 270.79341074924156 86.97712229831437 L 270.5307140517066 84.75760910752967 L 270.44296815832456 82.5243269898478 L 270.5307140517066 80.29104487216593 L 270.79341074924156 78.07153168138123 L 271.2294386384336 75.87947145437792 L 271.8361094623518 73.72837897138947 L 272.6096828936283 71.63151643288435 L 273.54538959481994 69.60181169368998 L 274.63746062295985 67.65177855846882 L 275.8791629970091 65.79343962995134 L 277.2628412089237 64.03825218559221 L 278.7799644224075 62.397037539645 L 280.42117906835466 60.879914326161206 L 282.1763665127138 59.496236114246614 L 284.0347054412313 58.254533740197374 L 285.9847385764525 57.162462712057454 L 288.0144433156469 56.2267560108658 L 290.111305854152 55.453182579589296 L 292.26239833714044 54.84651175567106 L 294.4544585641438 54.41048386647904 L 296.6739717549285 54.147787168944106 L 298.9072538726104 54.06004127556208 L 301.1405359902923 54.14778716894412 L 303.360049181077 54.41048386647907 L 305.5521094080803 54.8465117556711 L 307.7032018910688 55.45318257958936 L 309.80006442957387 56.22675601086587 L 311.8297691687682 57.16246271205755 L 313.7798023039894 58.25453374019747 L 315.6381412325069 59.49623611424673 L 317.393328676866 60.879914326161334 L 319.03454332281325 62.397037539645154 L 320.55166653629703 64.03825218559238 L 321.9353447482116 65.79343962995152 L 323.17704712226083 67.65177855846903 L 324.26911815040074 69.60181169369022 L 325.2048248515924 71.63151643288461 L 325.97839828286885 73.72837897138974 L 326.5850691067871 75.87947145437822 L 327.02109699597906 78.07153168138154 L 327.283793693514 80.29104487216625 Z"
       fill-opacity="0.75"
       id="path152" />
    <text
       fill="rgb(0,0,0)"
       stroke="none"
       font-family="Helvetica Neue, Helvetica, sans-serif"
       font-size="12.514285714285714px"
       font-style="normal"
       font-weight="bold"
       text-decoration="normal"
       x="298.9072538726103"
       y="89.0243269898478"
       text-anchor="middle"
       dominant-baseline="text-after-edge"
       fill-opacity="0.75"
       id="text154">FarS</text>
    <path
       fill="rgb(95,158,160)"
       stroke="none"
       paint-order="stroke fill markers"
       d=" M 166.37920541329888 378.4983485811408 L 166.29344123394554 380.68119270871193 L 166.03667746057073 382.85057887636725 L 165.61049712721993 384.99313209698903 L 165.0175277773676 387.09564281750096 L 164.2614252642379 389.1451483601553 L 163.3468512112538 391.1290128417518 L 162.2794442715788 393.03500507805956 L 161.0657853639447 394.851373993135 L 159.71335709909974 396.5669210686127 L 158.2304976470246 398.17106938629513 L 156.6263493293422 399.65392883837023 L 154.91080225386446 401.00635710321524 L 153.094433338789 402.2200160108493 L 151.18844110248125 403.28742295052433 L 149.20457662088475 404.2019970035084 L 147.15507107823043 404.95809951663813 L 145.05256035771853 405.5510688664905 L 142.91000713709673 405.97724919984125 L 140.7406209694414 406.23401297321607 L 138.5577768418703 406.3197771525694 L 136.37493271429918 406.23401297321607 L 134.20554654664386 405.97724919984125 L 132.06299332602208 405.5510688664905 L 129.96048260551015 404.95809951663813 L 127.91097706285584 404.2019970035084 L 125.92711258125934 403.28742295052433 L 124.02112034495157 402.2200160108493 L 122.20475142987613 401.00635710321524 L 120.4892043543984 399.65392883837023 L 118.885056036716 398.17106938629513 L 117.40219658464086 396.5669210686127 L 116.04976831979586 394.851373993135 L 114.8361094121618 393.03500507805956 L 113.76870247248678 391.1290128417518 L 112.8541284195027 389.1451483601553 L 112.09802590637298 387.09564281750096 L 111.50505655652064 384.99313209698903 L 111.07887622316986 382.85057887636725 L 110.82211244979506 380.68119270871193 L 110.73634827044172 378.4983485811408 L 110.82211244979506 376.3155044535697 L 111.07887622316986 374.1461182859144 L 111.50505655652064 372.0035650652926 L 112.09802590637298 369.9010543447807 L 112.8541284195027 367.85154880212633 L 113.76870247248677 365.86768432052986 L 114.83610941216179 363.9616920842221 L 116.04976831979586 362.14532316914665 L 117.40219658464086 360.4297760936689 L 118.88505603671598 358.8256277759865 L 120.48920435439838 357.3427683239114 L 122.20475142987613 355.9903400590664 L 124.02112034495158 354.77668115143234 L 125.92711258125935 353.7092742117573 L 127.91097706285586 352.7947001587732 L 129.96048260551018 352.0385976456435 L 132.0629933260221 351.44562829579115 L 134.20554654664394 351.0194479624404 L 136.37493271429926 350.76268418906557 L 138.55777684187038 350.67692000971226 L 140.74062096944152 350.76268418906557 L 142.91000713709684 351.0194479624404 L 145.05256035771865 351.4456282957912 L 147.15507107823058 352.03859764564356 L 149.2045766208849 352.7947001587733 L 151.18844110248142 353.70927421175736 L 153.09443333878917 354.7766811514324 L 154.9108022538646 355.9903400590665 L 156.62634932934233 357.3427683239115 L 158.23049764702475 358.8256277759867 L 159.71335709909988 360.4297760936691 L 161.06578536394488 362.1453231691469 L 162.2794442715789 363.9616920842223 L 163.34685121125392 365.8676843205301 L 164.261425264238 367.8515488021266 L 165.0175277773677 369.90105434478096 L 165.61049712722001 372.0035650652929 L 166.0366774605708 374.1461182859147 L 166.29344123394554 376.31550445357004 Z"
       fill-opacity="0.75"
       id="path156" />
    <text
       fill="rgb(0,0,0)"
       stroke="none"
       font-family="Helvetica Neue, Helvetica, sans-serif"
       font-size="12.17142857142857px"
       font-style="normal"
       font-weight="bold"
       text-decoration="normal"
       x="138.5577768418703"
       y="384.4983485811408"
       text-anchor="middle"
       dominant-baseline="text-after-edge"
       fill-opacity="0.75"
       id="text158">Vcr229</text>
    <path
       fill="rgb(222,184,135)"
       stroke="none"
       paint-order="stroke fill markers"
       d=" M 78.14285714285714 257.27590934234235 L 78.05610210648946 259.4839724649688 L 77.7963718710346 261.67842214418886 L 77.36526775976319 263.8457288680014 L 76.76544767287788 265.9725304697516 L 76.00060970067479 268.0457145103313 L 75.07546932358693 270.05249912072674 L 73.99573033967945 271.98051180649117 L 72.76804969883781 273.81786572828764 L 71.39999646045801 275.5532329882061 L 69.90000512767855 277.17591447002087 L 68.27732364586373 278.67590580280034 L 66.54195638594531 280.04395904118013 L 64.70460246414885 281.27163968202177 L 62.77658977838439 282.35137866592925 L 60.769805167988956 283.2765190430171 L 58.69662112740924 284.0413570152202 L 56.56981952565906 284.64117710210553 L 54.4025128018465 285.0722812133769 L 52.2080631226265 285.3320114488318 L 50 285.4187664851995 L 47.79193687737351 285.3320114488318 L 45.5974871981535 285.0722812133769 L 43.43018047434095 284.64117710210553 L 41.30337887259077 284.0413570152202 L 39.230194832011044 283.2765190430171 L 37.223410221615616 282.35137866592925 L 35.29539753585115 281.2716396820218 L 33.45804361405469 280.04395904118013 L 31.722676354136265 278.67590580280034 L 30.09999487232145 277.17591447002087 L 28.600003539541987 275.5532329882061 L 27.231950301162197 273.81786572828764 L 26.00426966032055 271.98051180649117 L 24.924530676413077 270.05249912072674 L 23.999390299325217 268.0457145103313 L 23.23455232712211 265.9725304697516 L 22.63473224023682 263.8457288680014 L 22.203628128965413 261.67842214418886 L 21.94389789351054 259.4839724649688 L 21.857142857142858 257.27590934234235 L 21.94389789351054 255.06784621971585 L 22.20362812896541 252.87339654049586 L 22.634732240236815 250.7060898166833 L 23.234552327122106 248.57928821493311 L 23.999390299325214 246.5061041743534 L 24.924530676413074 244.49931956395795 L 26.004269660320546 242.5713068781935 L 27.23195030116219 240.73395295639705 L 28.600003539541984 238.9985856964786 L 30.099994872321446 237.3759042146638 L 31.722676354136247 235.87591288188435 L 33.45804361405468 234.50785964350453 L 35.295397535851166 233.2801790026629 L 37.22341022161563 232.20044001875542 L 39.23019483201108 231.27529964166754 L 41.30337887259081 230.51046166946443 L 43.430180474341 229.91064158257916 L 45.59748719815357 229.47953747130774 L 47.79193687737359 229.21980723585287 L 50.00000000000009 229.1330521994852 L 52.2080631226266 229.2198072358529 L 54.40251280184661 229.47953747130776 L 56.569819525659184 229.9106415825792 L 58.69662112740937 230.5104616694645 L 60.7698051679891 231.27529964166763 L 62.77658977838454 232.2004400187555 L 64.704602464149 233.28017900266298 L 66.54195638594547 234.50785964350464 L 68.2773236458639 235.87591288188446 L 69.90000512767871 237.37590421466393 L 71.39999646045817 238.99858569647878 L 72.76804969883796 240.73395295639722 L 73.99573033967958 242.57130687819372 L 75.07546932358704 244.49931956395818 L 76.00060970067489 246.50610417435365 L 76.76544767287798 248.5792882149334 L 77.36526775976326 250.7060898166836 L 77.79637187103464 252.87339654049617 L 78.05610210648948 255.0678462197162 Z"
       fill-opacity="0.75"
       id="path160" />
    <text
       fill="rgb(0,0,0)"
       stroke="none"
       font-family="Helvetica Neue, Helvetica, sans-serif"
       font-size="12.342857142857143px"
       font-style="normal"
       font-weight="bold"
       text-decoration="normal"
       x="50"
       y="263.27590934234235"
       text-anchor="middle"
       dominant-baseline="text-after-edge"
       fill-opacity="0.75"
       id="text162">VC0706</text>
    <path
       fill="rgb(222,184,135)"
       stroke="none"
       paint-order="stroke fill markers"
       d=" M 423.03383942516393 273.6314568271037 L 422.9411392467102 275.99083392006247 L 422.6636102387749 278.33566466867063 L 422.2029634599798 280.6514924116277 L 421.5620389508968 282.92403930080746 L 420.74478822425334 285.1392943289396 L 419.7562499025427 287.28359971212865 L 418.60251865324057 289.3437350946333 L 417.2907076131534 291.30699905675596 L 415.82890453356487 293.1612874233185 L 414.2261219165594 294.89516788992773 L 412.4922414499502 296.4979505069332 L 410.63795308338763 297.95975358652174 L 408.674689121265 299.2715646266089 L 406.6145537387603 300.42529587591105 L 404.4702483555713 301.41383419762167 L 402.25499332743914 302.23108492426513 L 399.9824464382594 302.8720094333481 L 397.6666186953023 303.3326562121432 L 395.32178794669414 303.6101852200785 L 392.9624108537354 303.70288539853226 L 390.6030337607766 303.6101852200785 L 388.25820301216845 303.3326562121432 L 385.94237526921137 302.8720094333481 L 383.6698283800316 302.23108492426513 L 381.45457335189946 301.41383419762167 L 379.31026796871043 300.42529587591105 L 377.2501325862058 299.2715646266089 L 375.2868686240831 297.95975358652174 L 373.43258025752056 296.4979505069332 L 371.69869979091135 294.89516788992773 L 370.0959171739059 293.1612874233185 L 368.63411409431734 291.30699905675596 L 367.3223030542302 289.3437350946333 L 366.16857180492804 287.28359971212865 L 365.1800334832174 285.1392943289396 L 364.36278275657395 282.92403930080746 L 363.72185824749096 280.6514924116277 L 363.2612114686959 278.33566466867063 L 362.9836824607606 275.99083392006247 L 362.8909822823068 273.6314568271037 L 362.9836824607606 271.27207973414494 L 363.2612114686959 268.9272489855368 L 363.72185824749096 266.6114212425797 L 364.36278275657395 264.33887435339994 L 365.1800334832174 262.1236193252678 L 366.16857180492804 259.97931394207876 L 367.3223030542302 257.9191785595741 L 368.6341140943173 255.95591459745148 L 370.0959171739059 254.10162623088888 L 371.69869979091135 252.36774576427968 L 373.43258025752056 250.76496314727422 L 375.2868686240831 249.30316006768564 L 377.2501325862058 247.9913490275985 L 379.31026796871043 246.83761777829633 L 381.4545733518995 245.8490794565857 L 383.6698283800317 245.03182872994228 L 385.9423752692114 244.39090422085928 L 388.2582030121685 243.9302574420642 L 390.6030337607767 243.65272843412893 L 392.9624108537355 243.56002825567512 L 395.32178794669426 243.65272843412893 L 397.6666186953024 243.93025744206423 L 399.9824464382595 244.3909042208593 L 402.2549933274393 245.03182872994233 L 404.47024835557147 245.8490794565858 L 406.6145537387605 246.83761777829645 L 408.67468912126515 247.9913490275986 L 410.6379530833878 249.30316006768575 L 412.49224144995037 250.76496314727436 L 414.2261219165596 252.36774576427985 L 415.82890453356504 254.10162623088908 L 417.2907076131536 255.95591459745168 L 418.60251865324074 257.91917855957433 L 419.75624990254283 259.979313942079 L 420.74478822425345 262.12361932526807 L 421.56203895089686 264.33887435340023 L 422.20296345997986 266.61142124258004 L 422.66361023877494 268.9272489855371 L 422.9411392467102 271.2720797341453 Z"
       fill-opacity="0.75"
       id="path164" />
    <text
       fill="rgb(0,0,0)"
       stroke="none"
       font-family="Helvetica Neue, Helvetica, sans-serif"
       font-size="13.371428571428572px"
       font-style="normal"
       font-weight="bold"
       text-decoration="normal"
       x="392.9624108537354"
       y="280.1314568271037"
       text-anchor="middle"
       dominant-baseline="text-after-edge"
       fill-opacity="0.75"
       id="text166">VC1433</text>
    <g
       transform="scale(0.9259259259259258,0.9259259259259258) translate(-493.55886956755427,-297.0654817664049)"
       id="g168" />
  </g>
</svg>
